HIERARCHY
ROOT Hips
{
	OFFSET 0.00000 0.00000 0.00000
	CHANNELS 6 Xposition Yposition Zposition Zrotation Yrotation Xrotation 
	JOINT LHipJoint
	{
		OFFSET 0 0 0
		CHANNELS 3 Zrotation Yrotation Xrotation
		JOINT LeftHip
		{
			OFFSET 1.38615 -1.80049 0.80104
			CHANNELS 3 Zrotation Yrotation Xrotation
			JOINT LeftKnee
			{
				OFFSET 2.50172 -6.87341 0.00000
				CHANNELS 3 Zrotation Yrotation Xrotation
				JOINT LeftAnkle
				{
					OFFSET 2.67523 -7.35014 0.00000
					CHANNELS 3 Zrotation Yrotation Xrotation
					JOINT LeftToe
					{
						OFFSET 0.17446 -0.47932 2.13155
						CHANNELS 3 Zrotation Yrotation Xrotation
						End Site
						{
							OFFSET 0.00000 -0.00000 1.10023
						}
					}
				}
			}
		}
	}
	JOINT RHipJoint
	{
		OFFSET 0 0 0
		CHANNELS 3 Zrotation Yrotation Xrotation
		JOINT RightHip
		{
			OFFSET -1.18047 -1.80049 0.80104
			CHANNELS 3 Zrotation Yrotation Xrotation
			JOINT RightKnee
			{
				OFFSET -2.59789 -7.13765 0.00000
				CHANNELS 3 Zrotation Yrotation Xrotation
				JOINT RightAnkle
				{
					OFFSET -2.62125 -7.20183 0.00000
					CHANNELS 3 Zrotation Yrotation Xrotation
					JOINT RightToe
					{
						OFFSET -0.31287 -0.85960 2.07814
						CHANNELS 3 Zrotation Yrotation Xrotation
						End Site
						{
							OFFSET -0.00000 -0.00000 1.11766
						}
					}
				}
			}
		}
	}
	JOINT lowerback
	{
		OFFSET 0 0 0
		CHANNELS 3 Zrotation Yrotation Xrotation
		JOINT Chest
		{
			OFFSET -0.01587 2.16157 -0.12309
			CHANNELS 3 Zrotation Yrotation Xrotation
			JOINT Chest2
			{
				OFFSET 0.04727 2.16674 -0.03569
				CHANNELS 3 Zrotation Yrotation Xrotation
				JOINT lowerneck
				{
					OFFSET 0 0 0
					CHANNELS 3 Zrotation Yrotation Xrotation
					JOINT Neck
					{
						OFFSET -0.08586 1.60335 0.32783
						CHANNELS 3 Zrotation Yrotation Xrotation
						JOINT Head
						{
							OFFSET 0.07583 1.65857 -0.31618
							CHANNELS 3 Zrotation Yrotation Xrotation
							End Site
							{
								OFFSET 0.03386 1.69434 -0.14584
							}
						}
					}
				}
				JOINT LeftCollar
				{
					OFFSET 0 0 0
					CHANNELS 3 Zrotation Yrotation Xrotation
					JOINT LeftShoulder
					{
						OFFSET 3.17393 1.01901 -0.52897
CHANNELS 3 Zrotation Xrotation Yrotation
						JOINT LeftElbow
						{
OFFSET 0 -5.252870 -0.000000
CHANNELS 3 Zrotation Xrotation Yrotation
							JOINT LeftWrist
							{
OFFSET 0 -3.510140 0.000000
CHANNELS 3 Zrotation Xrotation Yrotation
								JOINT lhand
								{
									OFFSET 0 0 0
CHANNELS 3 Zrotation Xrotation Yrotation
									JOINT LFingers
									{
OFFSET 0 -0.706180 -0.000000
CHANNELS 3 Zrotation Xrotation Yrotation
										End Site
										{
OFFSET 0 -0.569340 -0.000000
										}
									}
								}
								JOINT LThumb
								{
OFFSET 0 0.000000 0.000000
CHANNELS 3 Zrotation Xrotation Yrotation
									End Site
									{
OFFSET 0 -0.578030 0.578030
									}
								}
							}
						}
					}
				}
				JOINT RightCollar
				{
					OFFSET 0 0 0
					CHANNELS 3 Zrotation Yrotation Xrotation
					JOINT RightShoulder
					{
						OFFSET -2.99471 1.26495 -0.61125
CHANNELS 3 Zrotation Xrotation Yrotation
						JOINT RightElbow
						{
OFFSET 0 -5.287210 -0.000000
CHANNELS 3 Zrotation Xrotation Yrotation
							JOINT RightWrist
							{
OFFSET 0 -3.505440 0.000000
CHANNELS 3 Zrotation Xrotation Yrotation
								JOINT rhand
								{
									OFFSET 0 0 0
CHANNELS 3 Zrotation Xrotation Yrotation
									JOINT RFingers
									{
OFFSET 0 -0.885000 -0.000000
CHANNELS 3 Zrotation Xrotation Yrotation
										End Site
										{
OFFSET 0 -0.713510 -0.000000
										}
									}
								}
								JOINT RThumb
								{
OFFSET 0 0.000000 0.000000
CHANNELS 3 Zrotation Xrotation Yrotation
									End Site
									{
OFFSET 0 -0.724400 0.724400
									}
								}
							}
						}
					}
				}
			}
		}
	}
}
MOTION
Frames: 11
Frame Time: 0.008333333333333333
11.304000 18.056600 9.593000 176.618000 -3.463500 -171.391000 0.000000 0.000000 0.000000 -26.086900 6.674800 9.194900 0.000000 0.000000 0.000000 -0.879700 -18.114900 -1.678800 0.026900 1.059000 2.911100 0.000000 0.000000 0.000000 17.783600 3.738300 -36.274000 -1.665100 -8.130500 23.111100 -0.132800 -5.186400 -10.681100 -0.482900 4.456100 -12.363600 -5.970400 -0.413500 -1.717300 -0.060100 -0.440200 0.251000 3.273600 -0.269800 1.267000 -9.789200 -4.252600 -23.890400 4.806400 -4.019700 23.316400 2.713000 -2.165100 11.926500 -0.000000 0.000000 0.000000 25.160500 -36.062200 -24.525700 51.656600 -53.642200 27.502700 5.048000 -9.013900 -34.904200 0.000000 0.000000 0.000000 -7.125000 0.000000 0.000000 -33.471300 61.808600 14.574300 -0.000000 0.000000 0.000000 -30.085700 -27.743500 10.237100 -53.170300 -54.196800 -28.726200 -23.797700 -28.140700 -13.628700 0.000000 0.000000 0.000000 7.125000 0.000000 -0.000000 2.459200 15.147700 1.732800
11.310898 18.069697 9.499925 176.614508 -3.770402 -171.441641 0.000000 0.000000 0.000000 -25.950606 6.504803 9.627357 0.000000 0.000000 0.000000 -0.891487 -18.081721 -1.361158 0.017034 0.838100 2.303494 0.000000 0.000000 0.000000 17.364851 4.390959 -35.827224 -1.661258 -8.121594 23.083946 -0.028811 -5.741094 -8.939047 -0.180189 2.642277 -7.290762 -6.051775 -0.348452 -1.578823 0.100729 -0.355682 0.367911 3.488388 -0.231033 1.303147 -10.083355 -4.397451 -24.167180 5.020577 -4.155209 23.544896 2.820132 -2.224996 12.093004 0.000000 0.000000 0.000000 25.133870 -37.002727 -24.421798 52.240544 -53.859782 27.973749 5.463431 -9.116317 -35.312734 0.000000 0.000000 0.000000 -7.125000 0.000000 0.000000 -33.506836 62.248828 14.940749 0.000000 0.000000 0.000000 -31.030854 -28.187744 9.777489 -54.876904 -54.779609 -30.116123 -24.764857 -28.732677 -12.760904 0.000000 0.000000 0.000000 7.125000 0.000000 0.000000 1.740621 15.980222 1.196616
11.318691 18.081525 9.407895 176.992346 -3.998501 -171.531833 0.000000 0.000000 0.000000 -25.409623 6.459280 10.032278 0.000000 0.000000 0.000000 -0.892528 -17.956382 -1.051874 0.006048 0.460937 1.266575 0.000000 0.000000 0.000000 17.438175 5.092944 -35.173514 -1.621373 -8.028064 22.799412 0.071223 -6.760549 -7.573027 -0.040532 1.035312 -2.849395 -5.634435 -0.307583 -1.470718 0.316183 -0.311386 0.436316 3.478183 -0.205625 1.307057 -10.241469 -4.399172 -24.243294 5.088564 -4.137065 23.837345 2.878012 -2.233327 12.226152 0.000000 0.000000 0.000000 25.300517 -37.776991 -24.159395 53.085002 -54.164973 28.657329 5.745211 -9.393355 -35.473067 0.000000 0.000000 0.000000 -7.125000 0.000000 0.000000 -33.402601 62.452198 15.048700 0.000000 0.000000 0.000000 -31.728778 -28.735194 9.415859 -56.302696 -55.238317 -31.284262 -25.419114 -29.006082 -12.278916 0.000000 0.000000 0.000000 7.125000 0.000000 0.000000 1.257929 16.433577 0.851843
11.323787 18.089297 9.314185 177.406528 -4.248444 -171.574245 0.000000 0.000000 0.000000 -24.889519 6.085102 9.585349 0.012697 0.572108 1.572507 -0.871737 -18.028682 -1.638252 0.002552 -0.064438 -0.176990 0.000000 0.000000 0.000000 17.727211 5.462913 -34.713848 -1.596170 -7.968705 22.618961 0.148039 -7.697246 -6.636056 -0.003045 0.219763 -0.603956 -5.117252 -0.288167 -1.442844 0.529838 -0.296103 0.407410 3.408729 -0.191034 1.258042 -10.253262 -4.359897 -24.030361 5.022379 -4.115467 24.033270 2.860874 -2.249427 12.258617 0.000000 0.000000 0.000000 25.411270 -38.347086 -23.962452 54.018532 -54.491067 29.415877 5.925111 -9.894316 -35.348719 0.000000 0.000000 0.000000 -7.125000 0.000000 0.000000 -33.080802 62.395732 14.842966 0.000000 0.000000 0.000000 -32.358840 -29.175451 9.176057 -57.523797 -55.610583 -32.289643 -26.257450 -29.526149 -12.446091 0.000000 0.000000 0.000000 7.125000 0.000000 0.000000 0.690727 16.152931 0.469069
11.324220 18.091114 9.218432 177.680990 -4.588274 -171.537691 0.000000 0.000000 0.000000 -24.542775 5.475458 8.809603 0.048917 1.357286 3.733527 -0.839794 -18.185372 -2.573076 0.012693 -0.645117 -1.773013 0.000000 0.000000 0.000000 17.984655 5.499820 -34.460384 -1.583926 -7.939582 22.530650 0.206409 -8.470591 -5.994599 -0.000098 -0.043152 0.118570 -4.653642 -0.275659 -1.480790 0.667983 -0.286013 0.406676 3.290682 -0.182260 1.275577 -10.300620 -4.387818 -23.948685 5.073926 -4.182496 24.175294 2.878240 -2.285551 12.307314 0.000000 0.000000 0.000000 25.504867 -39.046050 -23.848037 55.026258 -54.829473 30.238058 6.108779 -10.503912 -35.214214 0.000000 0.000000 0.000000 -7.125000 0.000000 0.000000 -32.743625 62.331703 14.623938 0.000000 0.000000 0.000000 -33.029834 -29.570068 8.835979 -58.789978 -55.975137 -33.337067 -27.149809 -30.068505 -12.802170 0.000000 0.000000 0.000000 7.125000 0.000000 0.000000 0.102511 15.652838 0.069212
11.320743 18.091918 9.121252 177.845154 -4.994132 -171.492097 0.000000 0.000000 0.000000 -24.306883 4.846843 8.210785 0.102074 2.037066 5.608913 -0.808603 -18.273126 -3.296067 0.037230 -1.209584 -3.326082 0.000000 0.000000 0.000000 18.129253 5.417628 -34.250454 -1.584942 -7.941997 22.538068 0.257844 -9.198200 -5.635420 -0.000968 -0.169308 0.465222 -4.226806 -0.314147 -1.502221 0.758664 -0.344210 0.441735 3.142239 -0.209862 1.326338 -10.452645 -4.393756 -23.866816 5.276382 -4.210265 24.209015 2.977230 -2.289028 12.315759 0.000000 0.000000 0.000000 25.689319 -39.782623 -23.620221 56.059342 -55.162987 31.084180 6.480999 -11.004967 -35.141806 0.000000 0.000000 0.000000 -7.125000 0.000000 0.000000 -32.284827 62.366525 14.421769 0.000000 0.000000 0.000000 -33.649606 -30.009785 8.512734 -60.140625 -56.344037 -34.458851 -27.707232 -30.333501 -12.976509 0.000000 0.000000 0.000000 7.125000 0.000000 0.000000 -0.266592 15.390566 -0.186308
11.316833 18.099388 9.023940 177.984990 -5.375581 -171.494000 0.000000 0.000000 0.000000 -24.088136 4.337902 7.869594 0.158850 2.559185 7.054272 -0.785347 -18.223147 -3.604607 0.069684 -1.694592 -4.662507 0.000000 0.000000 0.000000 18.191836 5.428162 -33.988291 -1.604887 -7.989416 22.682006 0.305594 -9.904939 -5.560273 -0.002730 -0.336173 0.923727 -3.855395 -0.433831 -1.439542 0.903166 -0.515648 0.419478 3.078039 -0.291848 1.281023 -10.679116 -4.266777 -23.418545 5.463491 -4.057023 24.048349 3.113786 -2.224284 12.161381 0.000000 0.000000 0.000000 25.934234 -40.242645 -23.155314 57.033954 -55.465155 31.885408 7.045848 -11.300021 -35.067976 0.000000 0.000000 0.000000 -7.125000 0.000000 0.000000 -31.627592 62.449168 14.157205 0.000000 0.000000 0.000000 -34.145681 -30.559885 8.436250 -61.374573 -56.664124 -35.487453 -27.869812 -30.341401 -12.894232 0.000000 0.000000 0.000000 7.125000 0.000000 0.000000 -0.385066 15.461581 -0.268282
11.317117 18.115848 8.928523 178.082750 -5.628131 -171.487401 0.000000 0.000000 0.000000 -23.920021 3.984810 7.603231 0.215205 2.983409 8.232882 -0.773118 -18.067877 -3.548310 0.101055 -2.045609 -5.631798 0.000000 0.000000 0.000000 18.202967 5.566069 -33.766648 -1.639545 -8.071033 22.930126 0.337351 -10.364149 -5.579502 -0.004838 -0.441046 1.212002 -3.714304 -0.560491 -1.324226 1.162907 -0.696869 0.309488 3.263205 -0.377619 1.119503 -10.923034 -4.102017 -22.747538 5.468135 -3.820364 23.792069 3.195900 -2.150843 11.915216 0.000000 0.000000 0.000000 26.047539 -40.433747 -22.623471 57.932867 -55.732642 32.627022 7.462730 -11.557719 -35.069267 0.000000 0.000000 0.000000 -7.125000 0.000000 0.000000 -31.202950 62.556796 14.026367 0.000000 0.000000 0.000000 -34.664017 -31.288841 8.501819 -62.258776 -56.882146 -36.226881 -28.213933 -30.500710 -12.720876 0.000000 0.000000 0.000000 7.125000 0.000000 0.000000 -0.635605 15.610558 -0.442084
11.323490 18.132612 8.837369 178.049571 -5.638521 -171.435886 0.000000 0.000000 0.000000 -23.918624 3.839697 7.274064 0.273005 3.360511 9.284208 -0.768578 -18.014617 -3.534340 0.139734 -2.408653 -6.636412 0.000000 0.000000 0.000000 18.176948 5.660279 -33.679598 -1.678922 -8.162624 23.209001 0.331501 -10.251341 -5.359388 -0.010601 -0.665439 1.828688 -3.902462 -0.550276 -1.276816 1.418993 -0.686479 0.282858 3.634805 -0.373865 1.070346 -10.897539 -4.095905 -22.608886 5.143683 -3.764659 23.873794 3.078028 -2.175378 11.908319 0.000000 0.000000 0.000000 26.079844 -40.841582 -22.210310 58.927091 -56.017105 33.449939 7.420035 -11.998121 -35.435891 0.000000 0.000000 0.000000 -7.125000 0.000000 0.000000 -31.654529 62.852610 14.471048 0.000000 0.000000 0.000000 -35.285505 -32.264904 8.275593 -62.871358 -57.027695 -36.740364 -29.364009 -31.336026 -12.979844 0.000000 0.000000 0.000000 7.125000 0.000000 0.000000 -1.399849 15.168409 -0.985253
11.330894 18.145600 8.746901 177.953751 -5.458757 -171.368927 0.000000 0.000000 0.000000 -24.015393 3.859425 6.877794 0.336555 3.725427 10.305758 -0.777853 -18.123622 -3.562074 0.180130 -2.730422 -7.529302 0.000000 0.000000 0.000000 18.150328 5.715617 -33.579076 -1.714525 -8.244175 23.458272 0.307030 -9.849012 -4.981384 -0.037129 -1.223631 3.364567 -4.125201 -0.460086 -1.300284 1.561382 -0.564193 0.277766 3.910900 -0.314935 1.070787 -10.657176 -4.124632 -22.739677 4.734623 -3.817417 24.394949 2.876492 -2.254487 12.127701 0.000000 0.000000 0.000000 26.186976 -41.265463 -21.848720 60.127086 -56.342328 34.447136 7.416039 -12.375196 -35.788785 0.000000 0.000000 0.000000 -7.125000 0.000000 0.000000 -32.061744 63.145077 14.897537 0.000000 0.000000 0.000000 -35.790550 -33.219171 7.602384 -62.532311 -56.947737 -36.456074 -28.220821 -30.682801 -14.598294 0.000000 0.000000 0.000000 7.125000 0.000000 0.000000 -0.469866 13.516086 -0.341588
11.336268 18.155451 8.655715 177.995766 -5.428123 -171.285609 0.000000 0.000000 0.000000 -23.958644 3.509117 6.621621 0.400937 4.061832 11.251252 -0.772234 -17.960677 -3.381190 0.223261 -3.037430 -8.383163 0.000000 0.000000 0.000000 18.173201 6.012308 -33.347429 -1.746624 -8.316921 23.680993 0.311848 -9.911421 -4.891056 -0.071334 -1.706575 4.695786 -3.995294 -0.404325 -1.256186 1.633192 -0.495959 0.243876 3.913747 -0.278657 1.003947 -10.566973 -4.127645 -22.873869 4.692542 -3.876023 24.852505 2.838455 -2.298065 12.335544 0.000000 0.000000 0.000000 26.481366 -41.673905 -21.591574 61.296318 -56.643622 35.422230 8.193882 -12.244501 -36.069707 0.000000 0.000000 0.000000 -7.125000 0.000000 0.000000 -31.585236 63.584679 14.974551 0.000000 0.000000 0.000000 -36.149432 -33.978406 7.611912 -63.860671 -57.250133 -37.572139 -30.353483 -32.142327 -14.655486 0.000000 0.000000 0.000000 7.125000 0.000000 0.000000 -1.894502 13.122645 -1.417662
